<svg width="240.56700134277344" height="285.5715026855469" xmlns="http://www.w3.org/2000/svg" xmlns:svg="http://www.w3.org/2000/svg">
    <!-- Created with SVG-edit - http://svg-edit.googlecode.com/ -->
    <g>
        <title>Layer 1</title>
        <circle stroke="null" id="svg_8" r="61.701393" cy="131.928499" cx="121.28351" stroke-linecap="null" stroke-linejoin="null" stroke-dasharray="null" stroke-width="null" fill="#ffffff" />
        <g stroke="null" id="svg_1">
            <path d="m230.431514,140.609733l-8.93415,-19.546037c-3.851884,-8.431927 -5.804616,-17.408038 -5.804616,-26.679156c0,-16.848362 6.468867,-32.77426 18.215597,-44.84311c1.595107,-1.639003 1.583488,-4.25405 -0.025821,-5.878852l-39.609144,-39.997108c-1.553148,-1.567995 -4.055227,-1.66547 -5.723924,-0.222708c-9.146531,7.900655 -20.851947,12.251535 -32.96211,12.251535c-11.653128,0 -22.603273,-3.868022 -31.66782,-11.185763c-1.537656,-1.241356 -3.733752,-1.242002 -5.271408,0c-9.064548,7.317741 -20.014692,11.185763 -31.66782,11.185763c-12.110163,0 -23.816225,-4.35088 -32.961464,-12.251535c-1.669344,-1.442762 -4.171422,-1.345287 -5.72457,0.222708l-39.609789,39.997108c-1.609955,1.625448 -1.620929,4.24114 -0.024531,5.879498c11.746085,12.062394 18.214952,27.985065 18.214952,44.836009c0,9.265954 -1.955314,18.244001 -5.811717,26.685611l-8.927695,19.546682c-10.135484,22.190778 -10.080614,46.524073 0.153636,68.516673c10.210366,21.941603 29.238687,38.188975 52.187964,44.570696c1.022521,0.289198 2.396857,0.599699 4.068782,0.919882c19.396274,3.788622 36.976023,14.239125 49.500617,29.427181c0.796586,0.967006 1.984363,1.526682 3.237339,1.526682c1.25233,0 2.440108,-0.559676 3.237339,-1.526682c12.52524,-15.189347 30.104989,-25.640496 49.487706,-29.424599c1.678381,-0.322765 3.044325,-0.631329 4.059745,-0.917945c22.968643,-6.388176 41.9989,-22.634903 52.209266,-44.57586c10.23425,-21.991955 10.289121,-46.324605 0.153636,-68.516673zm-7.761866,64.975934c-9.173642,19.71323 -26.250523,34.304169 -46.852003,40.032613c-0.006455,0.001291 -0.012265,0.003227 -0.017429,0.005164c-0.541601,0.152991 -1.566704,0.408621 -3.386456,0.758499c-19.677725,3.842201 -37.655767,13.932498 -51.129293,28.60542c-13.472879,-14.671631 -31.450921,-24.761928 -51.144784,-28.608002c-1.806842,-0.346005 -2.833882,-0.601635 -3.395494,-0.760436c-20.598253,-5.728443 -37.673196,-20.319383 -46.846193,-40.031321c-9.182035,-19.730659 -9.227222,-41.568331 -0.128461,-61.489421l8.92705,-19.546682c4.359917,-9.543532 6.570215,-19.694509 6.570215,-30.172125c0,-17.668832 -6.292637,-34.436503 -17.80052,-47.656335l34.126002,-34.459742c10.159369,7.650835 22.580679,11.824194 35.388016,11.824194c12.292204,0 24.348143,-3.900299 34.303524,-11.041165c9.955381,7.140866 22.011966,11.041165 34.303524,11.041165c12.807337,0 25.228647,-4.174004 35.388015,-11.824194l34.126649,34.460388c-11.50982,13.225641 -17.801167,29.995249 -17.801167,47.662144c0,10.48278 2.208362,20.632466 6.563761,30.166961l8.93415,19.546036c9.098762,19.9198 9.052283,41.756826 -0.129106,61.486839z" fill="#bfbfbf" stroke="null" id="svg_2" />
            <path d="m206.230553,128.038014c-4.857622,-10.635125 -7.321614,-21.957741 -7.321614,-33.653474c0,-15.816803 4.532274,-31.115245 13.105573,-44.240829c1.08191,-1.655788 0.860493,-3.842201 -0.531272,-5.246877l-19.354314,-19.5441c-1.303973,-1.316884 -3.317385,-1.62222 -4.95187,-0.752044c-9.687485,5.153275 -20.611163,7.877416 -31.58971,7.877416c-11.225141,0 -22.390893,-2.860994 -32.290112,-8.274418c-1.254267,-0.686199 -2.771266,-0.686199 -4.026178,0c-9.89922,5.413424 -21.065617,8.274418 -32.290112,8.274418c-10.977902,0 -21.90158,-2.724141 -31.589711,-7.877416c-1.635776,-0.870176 -3.648542,-0.56484 -4.951869,0.752044l-19.353023,19.542809c-1.391765,1.405321 -1.613182,3.591735 -0.531272,5.247522c8.572653,13.121711 13.104282,28.418217 13.104282,44.235666c0,11.689277 -2.465284,23.013184 -7.328715,33.658638l-8.927696,19.546682c-8.062038,17.652048 -8.025242,36.994097 0.103931,54.462815c8.135629,17.482919 23.25655,30.416781 41.479247,35.484845l0.055516,0.015493c0.250466,0.071008 1.019294,0.272414 2.72285,0.598407c17.23439,3.366445 33.41721,11.176081 46.797779,22.585843c0.78432,0.66877 1.753262,1.003156 2.722204,1.003156c0.968943,0 1.93853,-0.334386 2.722205,-1.003156c13.383797,-11.411699 29.582109,-19.224562 46.831992,-22.592943c1.662888,-0.319538 2.426551,-0.519653 2.669916,-0.588079l0.061971,-0.01743c18.231736,-5.069355 33.355239,-18.003862 41.491513,-35.487427c8.129173,-17.468072 8.166614,-36.808185 0.105867,-54.458296l-8.937378,-19.549265zm-93.727245,70.883836l-15.055077,38.649884c-4.428989,-1.98759 -8.987084,-3.688565 -13.646528,-5.080975l14.46958,-37.13676c4.532274,1.692583 9.296939,2.902308 14.232025,3.567851zm8.903165,-7.792206c-31.927969,0 -57.90285,-25.975527 -57.90285,-57.903496s25.974881,-57.903496 57.90285,-57.903496s57.903496,25.975527 57.903496,57.903496s-25.975527,57.903496 -57.903496,57.903496zm24.991737,-119.303834l12.082406,-31.019061c5.612248,-0.216899 11.188345,-1.062545 16.606934,-2.507243l-15.80002,40.551619c-3.99842,-2.793213 -8.317023,-5.157148 -12.88932,-7.025315zm-75.079142,157.643863l-0.078109,-0.021948c-15.860054,-4.410914 -29.028244,-15.688988 -36.126504,-30.942243c-7.076312,-15.207422 -7.10407,-32.053202 -0.078755,-47.435563l8.927696,-19.546682c5.3663,-11.74673 8.087214,-24.244213 8.087214,-37.145152c0,-16.306116 -4.36831,-32.115173 -12.663384,-45.939867l14.866581,-15.011827c10.178735,4.877634 21.427115,7.44362 32.726491,7.44362c11.872609,0 23.683246,-2.843565 34.303524,-8.241496c8.816664,4.481277 18.453152,7.19509 28.263934,7.990384l-11.114109,28.533121c-5.436017,-1.44599 -11.142512,-2.220627 -17.027174,-2.220627c-36.555136,0 -66.294755,29.739619 -66.294755,66.2954c0,25.442964 14.4089,47.579517 35.493238,58.689753l-14.987942,38.467199c-0.752044,-0.163319 -1.503442,-0.329221 -2.259359,-0.477047c-1.484721,-0.284679 -2.02374,-0.432506 -2.038587,-0.437025zm99.992125,-0.019366l-0.076173,0.021303c-0.005164,0.001291 -0.542246,0.149117 -1.9934,0.428632c-17.519715,3.42067 -34.027237,11.071505 -47.957798,22.198525c-5.107442,-4.079757 -10.56218,-7.686985 -16.283522,-10.794572l16.275776,-41.783938c0.04325,0 0.086501,0.001937 0.129751,0.001937c36.555782,0 66.295401,-29.739619 66.295401,-66.295401c0,-19.32591 -8.314441,-36.745568 -21.551057,-48.873806l19.347213,-49.654899c0.946349,-0.406685 1.887533,-0.825635 2.816453,-1.271051l14.867872,15.013763c-8.296366,13.827922 -12.664675,29.639561 -12.664675,45.944386c0,12.907395 2.718977,25.40294 8.080759,37.141278l7.38423,16.153125l-31.464477,80.771436c-1.056089,0.362789 -2.124443,0.698465 -3.206353,0.999282zm36.14135,-30.94547c-4.835673,10.390468 -12.489736,18.933427 -21.893833,24.721905l24.969789,-64.098658c3.806051,13.074587 2.782885,26.786959 -3.075956,39.376753z" fill="#7f3f00" stroke="null" id="svg_3" />
            <g stroke="null" id="svg_4">
                <path d="m105.254428,124.204918c10.429938,-7.860989 14.848533,-12.125446 25.89502,-7.193061s17.366104,14.848532 12.330961,25.84364c1.130338,0.359653 1.387233,2.877224 -0.667927,2.774466c-1.798265,5.292038 -5.548933,11.560276 -5.343417,15.876113a3.442393,3.442393 0 0 0 2.620329,3.031361c-0.051379,-0.51379 1.027581,-0.924822 1.489992,0.462411c0.924822,2.774467 -3.802047,4.213079 -10.070286,2.209298s-8.631673,-4.007563 -10.84097,-6.936166c-0.411032,-0.565169 -1.233096,-1.284475 -1.644129,-0.205516s-1.438611,4.418595 -2.774466,5.497553c-8.169262,6.576513 -19.883675,9.094085 -31.392572,7.912368c-0.51379,-0.051379 -1.798266,-0.462412 -0.873443,-1.233096c5.600311,-5.086522 13.101646,-15.670598 18.136789,-27.128116c0.51379,-1.233096 0.873443,-1.644128 1.387233,-1.54137c4.624111,0.770685 9.042705,-0.359653 11.200624,-2.157918c-0.924822,-6.525134 -10.224422,-7.860988 -14.180606,-4.932385a14.951291,14.951291 0 0 0 -1.952402,8.631673a11.611656,11.611656 0 0 1 -4.418595,2.312056c1.592749,-7.655472 4.367216,-14.745775 9.2996,-20.911256c-1.181717,-1.901023 0.308274,-3.185498 1.798265,-2.312055zm36.941506,6.370997c0.205515,2.363434 0,5.240658 -1.798266,6.576512s-7.347197,0.205516 -10.532696,-1.233096c4.521353,2.363434 10.173043,4.058942 12.896131,4.418595c1.798265,-4.418595 0.154137,-8.220641 -0.565169,-9.710632l0,-0.051379l0,0zm-2.363434,34.526692c-1.387234,1.798265 -6.473755,0.976201 -9.2996,0.051379c2.312055,1.233096 6.525133,1.798265 8.374777,1.078959c0.462412,-0.205516 1.027581,-0.822064 0.873443,-1.130338l0.05138,0l0,0zm-49.940394,6.011344c5.805827,0 14.129227,-3.082741 16.852314,-5.086522c-3.185499,1.901023 -11.406139,4.572731 -16.03025,4.1617l-0.873443,0.924822l0.05138,0l-0.000001,0zm34.423934,-35.708409c4.264457,2.517571 14.540258,7.24444 16.903693,7.604093c1.54137,0.205516 1.695507,-0.051379 1.644128,-0.411033c-3.802046,-0.616548 -12.89613,-4.521352 -18.547821,-7.19306l0,0zm-18.393685,-10.584076c-0.616548,-0.308274 -1.078959,-0.359653 -1.130337,-0.051379a83.542264,83.542264 0 0 0 8.939946,5.18928c-2.774466,-1.695508 -5.292037,-3.391015 -7.809609,-5.137901z" fill="#3f3f3f" stroke="null" id="svg_5" />
                <path d="m110.186813,117.577026c1.746886,-0.873443 4.367215,-2.312056 7.141682,-2.825846c5.035142,-1.02758 12.485098,0.719306 15.516459,3.185499c4.418595,4.726868 7.449956,8.78581 11.817172,13.512679c0.924822,-0.154138 1.233096,-0.719307 1.078959,-1.233097l-1.181717,-2.877224a5.805827,5.805827 0 0 1 3.13412,-1.233096a26.717083,26.717083 0 0 1 1.489991,3.904804c0.359653,1.130338 1.387233,1.335854 2.466192,1.130338c-3.339635,-21.270909 -28.258453,-31.392573 -47.114549,-22.247109c0.667927,1.746886 1.489991,2.209297 2.05516,1.952402a14.643017,14.643017 0 0 1 3.699288,-1.284475a14.180605,14.180605 0 0 1 1.59275,5.189279l-1.746886,1.489991a0.976201,0.976201 0 0 0 0.051379,1.335855z" fill="#3f3f3f" stroke="null" id="svg_6" />
                <path d="m103.661679,107.866394c-0.359653,-6.627892 -7.604093,-16.492661 -12.947509,-18.445064c19.421264,-14.026468 50.967974,-2.055159 60.678606,11.611656c6.782029,9.556495 12.228204,21.68194 9.710632,36.992884c-2.877224,17.468863 -16.852314,31.187057 -6.16548,40.33252c-4.1617,0.616548 -11.91993,-5.70307 -9.967528,-20.037813c0.719307,-5.240658 3.956184,-10.532696 5.292038,-15.773354c0.873443,-3.545152 1.798265,-10.532696 -0.102758,-14.591638c-2.209297,-5.651691 -5.1379,-8.78581 -7.912367,-13.92371c-10.018907,-9.864769 -25.946399,-11.868551 -38.585634,-6.165481z" fill="#3f3f3f" stroke="null" id="svg_7" />
            </g>
        </g>
    </g>
</svg>